{"title":"Cardinal Burns S02E01","uid":9696763,"size":135510393,"categoryP":"video","categoryS":"tv_shows","magnet":"?xt=urn:btih:fe65f3abc95675ae04553a4b5d54d2cd0cf386c1&amp;dn=Cardinal+Burns+S02E01&amp;tr=udp%3A%2F%2Ftracker.openbittorrent.com%3A80&amp;tr=udp%3A%2F%2Fopen.demonii.com%3A1337&amp;tr=udp%3A%2F%2Ftracker.coppersurfer.tk%3A6969&amp;tr=udp%3A%2F%2Fexodus.desync.com%3A6969","seeders":1,"leechers":0,"uploader":"Pyre8Storm","files":-1,"time":1393946610,"description":"Wiki:\n &lt;a href=&quot;\nhttp://en.wikipedia.org/wiki/Cardinal_Burns&quot; rel=&quot;nofollow&quot; target=&quot;_NEW&quot;&gt;\nhttp://en.wikipedia.org/wiki/Cardinal_Burns&lt;/a&gt;\n\nI'm not looking at uploading the entire series, just giving you a taste of the first episode of series 2. A lack of comments of the first series(For every uploader) killed the will to get these episodes out; maybe another uploader might up the rest of this series episodes as they progress.\n\nVideo\n\nID                                       : 1\nFormat                                   : AVC\nFormat/Info                              : Advanced Video Codec\nFormat profile                           : &lt;a class=&quot;__cf_email__&quot; href=&quot;/cdn-cgi/l/email-protection&quot; data-cfemail=&quot;2c64454b446c6018021d&quot;&gt;[email&amp;#160;protected]&lt;/a&gt;&lt;script cf-hash='f9e31' type=&quot;text/javascript&quot;&gt;\n/* &lt;![CDATA[ */!function(){try{var t=&quot;currentScript&quot;in document?document.currentScript:function(){for(var t=document.getElementsByTagName(&quot;script&quot;),e=t.length;e--;)if(t[e].getAttribute(&quot;cf-hash&quot;))return t[e]}();if(t&amp;&amp;t.previousSibling){var e,r,n,i,c=t.previousSibling,a=c.getAttribute(&quot;data-cfemail&quot;);if(a){for(e=&quot;&quot;,r=parseInt(a.substr(0,2),16),n=2;a.length-n;n+=2)i=parseInt(a.substr(n,2),16)^r,e+=String.fromCharCode(i);e=document.createTextNode(e),c.parentNode.replaceChild(e,c)}}}catch(u){}}();/* ]]&gt; */&lt;/script&gt;\nFormat settings, CABAC                   : Yes\nFormat settings, ReFrames                : 4 frames\nCodec ID                                 : avc1\nCodec ID/Info                            : Advanced Video Coding\nDuration                                 : 25mn 6s\nBit rate                                 : 588 Kbps\nWidth                                    : 720 pixels\nHeight                                   : 404 pixels\nDisplay aspect ratio                     : 16:9\nOriginal display aspect ratio            : 16:9\nFrame rate mode                          : Constant\nFrame rate                               : 25.000 fps\nColor space                              : YUV\nChroma subsampling                       : 4:2:0\nBit depth                                : 8 bits\nScan type                                : Progressive\nBits/(Pixel*Frame)                       : 0.081\nStream size                              : 106 MiB (82%)\nWriting library                          : x264 core 104\n\nAudio\nID                                       : 2\nFormat                                   : AAC\nFormat/Info                              : Advanced Audio Codec\nFormat profile                           : LC\nCodec ID                                 : 40\nDuration                                 : 25mn 4s\nBit rate mode                            : Variable\nBit rate                                 : 128 Kbps\nChannel count                            : 2 channels\nChannel positions                        : Front: L R\nSampling rate                            : 44.1 KHz\nCompression mode                         : Lossy\nStream size                              : 22.9 MiB (18%)","torrent":{"xt":"urn:btih:fe65f3abc95675ae04553a4b5d54d2cd0cf386c1","amp;dn":"Cardinal+Burns+S02E01","amp;tr":["udp%3A%2F%2Ftracker.openbittorrent.com%3A80","udp%3A%2F%2Fopen.demonii.com%3A1337","udp%3A%2F%2Ftracker.coppersurfer.tk%3A6969","udp%3A%2F%2Fexodus.desync.com%3A6969"],"infoHash":"fe65f3abc95675ae04553a4b5d54d2cd0cf386c1","infoHashBuffer":{"type":"Buffer","data":[254,101,243,171,201,86,117,174,4,85,58,75,93,84,210,205,12,243,134,193]},"announce":[],"urlList":[]}}